<?xml version="1.0" standalone="no"?><!DOCTYPE svg PUBLIC "-//W3C//DTD SVG 1.1//EN" "http://www.w3.org/Graphics/SVG/1.1/DTD/svg11.dtd"><svg t="1626334841952" class="icon" viewBox="0 0 1024 1024" version="1.1" xmlns="http://www.w3.org/2000/svg" p-id="3548" width="200" height="200" xmlns:xlink="http://www.w3.org/1999/xlink"><defs><style type="text/css"></style></defs><path d="M520.704 611.136l231.04-233.6 15.146667 15.018667-231.018667 233.6zM365.077333 171.84l21.269334-1.642667 16.597333 214.826667-21.269333 1.642667z" fill="#297AFF" opacity=".6" p-id="3549"></path><path d="M168.64 418.304l222.08-42.602667 4.032 20.949334-222.08 42.602666zM519.424 623.04l19.562667-8.533333 102.101333 234.773333-19.562667 8.512z" fill="#297AFF" opacity=".6" p-id="3550"></path><path d="M300.48 769.045333l221.738667-159.36 12.437333 17.322667-221.717333 159.36z" fill="#297AFF" opacity=".6" p-id="3551"></path><path d="M203.968 607.765333l18.816-10.069333 94.485333 176.896-18.816 10.048zM383.168 391.125333l18.389333-10.794666 137.173334 233.621333-18.389334 10.794667zM748.864 387.093333l21.12-3.050666 42.88 297.728-21.12 3.050666z" fill="#297AFF" opacity=".6" p-id="3552"></path><path d="M392.533333 386.133333m-85.333333 0a85.333333 85.333333 0 1 0 170.666667 0 85.333333 85.333333 0 1 0-170.666667 0Z" fill="#297AFF" p-id="3553"></path><path d="M759.466667 386.133333m-128 0a128 128 0 1 0 256 0 128 128 0 1 0-256 0Z" fill="#297AFF" p-id="3554"></path><path d="M307.2 778.666667m-85.333333 0a85.333333 85.333333 0 1 0 170.666666 0 85.333333 85.333333 0 1 0-170.666666 0Z" fill="#297AFF" p-id="3555"></path><path d="M631.466667 853.333333m-42.666667 0a42.666667 42.666667 0 1 0 85.333333 0 42.666667 42.666667 0 1 0-85.333333 0Z" fill="#297AFF" p-id="3556"></path><path d="M213.333333 601.6m-42.666666 0a42.666667 42.666667 0 1 0 85.333333 0 42.666667 42.666667 0 1 0-85.333333 0Z" fill="#297AFF" p-id="3557"></path><path d="M529.066667 618.666667m-64 0a64 64 0 1 0 128 0 64 64 0 1 0-128 0Z" fill="#297AFF" p-id="3558"></path><path d="M170.666667 428.8m-42.666667 0a42.666667 42.666667 0 1 0 85.333333 0 42.666667 42.666667 0 1 0-85.333333 0Z" fill="#297AFF" p-id="3559"></path><path d="M375.466667 170.666667m-42.666667 0a42.666667 42.666667 0 1 0 85.333333 0 42.666667 42.666667 0 1 0-85.333333 0Z" fill="#297AFF" p-id="3560"></path><path d="M802.133333 682.666667m-64 0a64 64 0 1 0 128 0 64 64 0 1 0-128 0Z" fill="#297AFF" p-id="3561"></path></svg>